<?xml version="1.0" encoding="UTF-8" standalone="no"?>
<!DOCTYPE svg PUBLIC "-//W3C//DTD SVG 1.1//EN"
 "http://www.w3.org/Graphics/SVG/1.1/DTD/svg11.dtd">
<!-- Generated by graphviz version 2.40.1 (20161225.0304)
 -->
<!-- Title: %3 Pages: 1 -->
<svg width="726pt" height="720pt"
 viewBox="0.00 0.00 726.30 720.00" xmlns="http://www.w3.org/2000/svg" xmlns:xlink="http://www.w3.org/1999/xlink">
<g id="graph0" class="graph" transform="scale(.556 .556) rotate(0) translate(36 1259)">
<title>%3</title>
<polygon fill="#ffffff" stroke="transparent" points="-36,36 -36,-1259 1270.3311,-1259 1270.3311,36 -36,36"/>
<g id="clust1" class="cluster">
<title>cluster_a</title>
</g>
<g id="clust2" class="cluster">
<title>cluster_b</title>
</g>
<!-- setsTrue -->
<g id="node1" class="node">
<title>setsTrue</title>
<polygon fill="none" stroke="#000000" points="468,-651 180,-651 180,-543 468,-543 468,-651"/>
<text text-anchor="middle" x="324" y="-592.8" font-family="Helvetica,sans-Serif" font-size="14.00" fill="#000000">setsTrue</text>
</g>
<!-- isNegated -->
<g id="node11" class="node">
<title>isNegated</title>
<polygon fill="#e5e5e5" stroke="#000000" points="579,-470 521.825,-416 579,-362 636.175,-416 579,-470"/>
<text text-anchor="middle" x="579" y="-411.8" font-family="Helvetica,sans-Serif" font-size="14.00" fill="#000000">isNegated</text>
</g>
<!-- setsTrue&#45;&gt;isNegated -->
<g id="edge20" class="edge">
<title>setsTrue&#45;&gt;isNegated</title>
<path fill="none" stroke="#000000" d="M400.163,-542.9392C445.2703,-510.9218 500.6689,-471.5997 537.7474,-445.2813"/>
<polygon fill="#000000" stroke="#000000" points="540.1683,-447.855 546.297,-439.2127 536.1165,-442.1468 540.1683,-447.855"/>
</g>
<!-- setsFalse -->
<g id="node2" class="node">
<title>setsFalse</title>
<polygon fill="none" stroke="#000000" points="980,-651 692,-651 692,-543 980,-543 980,-651"/>
<text text-anchor="middle" x="836" y="-592.8" font-family="Helvetica,sans-Serif" font-size="14.00" fill="#000000">setsFalse</text>
</g>
<!-- setsFalse&#45;&gt;isNegated -->
<g id="edge21" class="edge">
<title>setsFalse&#45;&gt;isNegated</title>
<path fill="none" stroke="#000000" d="M759.2396,-542.9392C713.7785,-510.9218 657.9454,-471.5997 620.5762,-445.2813"/>
<polygon fill="#000000" stroke="#000000" points="622.1507,-442.1093 611.9595,-439.2127 618.12,-447.8324 622.1507,-442.1093"/>
</g>
<!-- setsNegated -->
<g id="node3" class="node">
<title>setsNegated</title>
<polygon fill="none" stroke="#000000" points="597,-289 309,-289 309,-181 597,-181 597,-289"/>
<text text-anchor="middle" x="453" y="-230.8" font-family="Helvetica,sans-Serif" font-size="14.00" fill="#000000">setsNegated</text>
</g>
<!-- returnValue -->
<g id="node5" class="node">
<title>returnValue</title>
<ellipse fill="none" stroke="#000000" cx="579" cy="-54" rx="144" ry="54"/>
<text text-anchor="middle" x="579" y="-49.8" font-family="Helvetica,sans-Serif" font-size="14.00" fill="#000000">returnValue</text>
</g>
<!-- setsNegated&#45;&gt;returnValue -->
<g id="edge23" class="edge">
<title>setsNegated&#45;&gt;returnValue</title>
<path fill="none" stroke="#000000" d="M490.8042,-180.694C505.2667,-159.9184 521.8503,-136.096 536.7057,-114.7561"/>
<polygon fill="#000000" stroke="#000000" points="539.6804,-116.609 542.5212,-106.4021 533.9353,-112.6096 539.6804,-116.609"/>
</g>
<!-- condition -->
<g id="node4" class="node">
<title>condition</title>
<ellipse fill="none" stroke="#000000" cx="324" cy="-1153" rx="144" ry="54"/>
<text text-anchor="middle" x="324" y="-1148.8" font-family="Helvetica,sans-Serif" font-size="14.00" fill="#000000">condition</text>
</g>
<!-- whatType -->
<g id="node6" class="node">
<title>whatType</title>
<polygon fill="#e5e5e5" stroke="#000000" points="390,-1026 335.3176,-972 390,-918 444.6824,-972 390,-1026"/>
<text text-anchor="middle" x="390" y="-967.8" font-family="Helvetica,sans-Serif" font-size="14.00" fill="#000000">whatType</text>
</g>
<!-- condition&#45;&gt;whatType -->
<g id="edge1" class="edge">
<title>condition&#45;&gt;whatType</title>
<path fill="none" stroke="#000000" d="M343.6235,-1099.1841C352.6072,-1074.5469 363.183,-1045.5436 371.9649,-1021.4598"/>
<polygon fill="#000000" stroke="#000000" points="375.3462,-1022.4035 375.4838,-1011.8096 368.7698,-1020.0054 375.3462,-1022.4035"/>
</g>
<!-- allTrue -->
<g id="node7" class="node">
<title>allTrue</title>
<polygon fill="#e5e5e5" stroke="#000000" points="538,-832 484,-778 538,-724 592,-778 538,-832"/>
<text text-anchor="middle" x="538" y="-773.8" font-family="Helvetica,sans-Serif" font-size="14.00" fill="#000000">allTrue</text>
</g>
<!-- whatType&#45;&gt;allTrue -->
<g id="edge6" class="edge">
<title>whatType&#45;&gt;allTrue</title>
<path fill="none" stroke="#000000" d="M413.7788,-940.8305C439.5312,-907.0739 480.648,-853.1777 508.4561,-816.7265"/>
<polygon fill="#000000" stroke="#000000" points="511.242,-818.8452 514.5247,-808.7717 505.6766,-814.5994 511.242,-818.8452"/>
<text text-anchor="middle" x="483.3828" y="-870.8" font-family="Times,serif" font-size="14.00" fill="#000000">allOf</text>
</g>
<!-- anyTrue -->
<g id="node8" class="node">
<title>anyTrue</title>
<polygon fill="#e5e5e5" stroke="#000000" points="794,-832 740,-778 794,-724 848,-778 794,-832"/>
<text text-anchor="middle" x="794" y="-773.8" font-family="Helvetica,sans-Serif" font-size="14.00" fill="#000000">anyTrue</text>
</g>
<!-- whatType&#45;&gt;anyTrue -->
<g id="edge7" class="edge">
<title>whatType&#45;&gt;anyTrue</title>
<path fill="none" stroke="#000000" d="M430.6293,-957.9672C491.6872,-936.2093 609.9693,-891.4414 704,-840 721.4155,-830.4725 739.6284,-818.3768 755.0781,-807.4036"/>
<polygon fill="#000000" stroke="#000000" points="757.283,-810.1289 763.3544,-801.4462 753.1936,-804.4477 757.283,-810.1289"/>
<text text-anchor="middle" x="664.4932" y="-870.8" font-family="Times,serif" font-size="14.00" fill="#000000">anyOf</text>
</g>
<!-- oneTrue -->
<g id="node9" class="node">
<title>oneTrue</title>
<polygon fill="#e5e5e5" stroke="#000000" points="1050,-832 996,-778 1050,-724 1104,-778 1050,-832"/>
<text text-anchor="middle" x="1050" y="-773.8" font-family="Helvetica,sans-Serif" font-size="14.00" fill="#000000">oneTrue</text>
</g>
<!-- whatType&#45;&gt;oneTrue -->
<g id="edge8" class="edge">
<title>whatType&#45;&gt;oneTrue</title>
<path fill="none" stroke="#000000" d="M438.0484,-965.2307C563.1644,-947.0156 895.9797,-894.6321 992,-840 1002.3049,-834.1369 1011.8603,-825.8371 1020.1196,-817.2109"/>
<polygon fill="#000000" stroke="#000000" points="1022.8998,-819.3556 1027.0306,-809.5992 1017.7172,-814.6501 1022.8998,-819.3556"/>
<text text-anchor="middle" x="939.4932" y="-870.8" font-family="Times,serif" font-size="14.00" fill="#000000">oneOf</text>
</g>
<!-- isTrue -->
<g id="node10" class="node">
<title>isTrue</title>
<polygon fill="#e5e5e5" stroke="#000000" points="292,-832 238,-778 292,-724 346,-778 292,-832"/>
<text text-anchor="middle" x="292" y="-773.8" font-family="Helvetica,sans-Serif" font-size="14.00" fill="#000000">isTrue</text>
</g>
<!-- whatType&#45;&gt;isTrue -->
<g id="edge2" class="edge">
<title>whatType&#45;&gt;isTrue</title>
<path fill="none" stroke="#000000" d="M341.9138,-965.3628C261.8996,-953.2253 107.0055,-924.7063 74.7861,-882 29.721,-822.267 153.8199,-795.2241 232.588,-784.3576"/>
<polygon fill="#000000" stroke="#000000" points="233.4506,-787.774 242.904,-782.9903 232.5308,-780.8347 233.4506,-787.774"/>
<text text-anchor="middle" x="95.6069" y="-870.8" font-family="Times,serif" font-size="14.00" fill="#000000">defined</text>
</g>
<!-- whatType&#45;&gt;isTrue -->
<g id="edge3" class="edge">
<title>whatType&#45;&gt;isTrue</title>
<path fill="none" stroke="#000000" d="M342.3028,-964.8151C295.7158,-954.985 227.2587,-932.4075 195.0068,-882 174.9748,-850.6912 212.0466,-820.2398 245.9874,-800.4649"/>
<polygon fill="#000000" stroke="#000000" points="247.9597,-803.3716 254.9684,-795.4263 244.5347,-797.2667 247.9597,-803.3716"/>
<text text-anchor="middle" x="206.4966" y="-870.8" font-family="Times,serif" font-size="14.00" fill="#000000">text</text>
</g>
<!-- whatType&#45;&gt;isTrue -->
<g id="edge4" class="edge">
<title>whatType&#45;&gt;isTrue</title>
<path fill="none" stroke="#000000" d="M355.6236,-951.6092C332.6636,-935.8401 304.3557,-911.7088 291.2344,-882 284.7117,-867.2316 282.8388,-850.0925 283.1634,-834.0403"/>
<polygon fill="#000000" stroke="#000000" points="286.677,-833.8428 283.6672,-823.6845 279.6853,-833.5026 286.677,-833.8428"/>
<text text-anchor="middle" x="313.3828" y="-870.8" font-family="Times,serif" font-size="14.00" fill="#000000">number</text>
</g>
<!-- whatType&#45;&gt;isTrue -->
<g id="edge5" class="edge">
<title>whatType&#45;&gt;isTrue</title>
<path fill="none" stroke="#000000" d="M375.6195,-931.7756C368.1472,-912.1802 358.4104,-888.4837 348,-868 339.5665,-851.406 329.055,-833.8748 319.4242,-818.7375"/>
<polygon fill="#000000" stroke="#000000" points="322.2354,-816.6384 313.8778,-810.1267 316.3505,-820.429 322.2354,-816.6384"/>
<text text-anchor="middle" x="377.1587" y="-870.8" font-family="Times,serif" font-size="14.00" fill="#000000">boolean</text>
</g>
<!-- allTrue&#45;&gt;setsTrue -->
<g id="edge14" class="edge">
<title>allTrue&#45;&gt;setsTrue</title>
<path fill="none" stroke="#000000" d="M512.3217,-749.4083C502.8986,-740.2596 491.665,-730.7614 480,-724 433.2971,-696.9294 404.269,-723.9497 364,-688 355.4369,-680.3554 348.6233,-670.54 343.2281,-660.1978"/>
<polygon fill="#000000" stroke="#000000" points="346.3108,-658.5311 338.8436,-651.015 339.9939,-661.5472 346.3108,-658.5311"/>
</g>
<!-- allTrue&#45;&gt;setsFalse -->
<g id="edge15" class="edge">
<title>allTrue&#45;&gt;setsFalse</title>
<path fill="none" stroke="#000000" d="M571.6051,-757.5888C611.7826,-733.1858 680.8027,-691.2641 738.2493,-656.3721"/>
<polygon fill="#000000" stroke="#000000" points="740.2693,-659.2402 746.9993,-651.0574 736.6354,-653.2573 740.2693,-659.2402"/>
</g>
<!-- allTrue&#45;&gt;allTrue -->
<g id="edge9" class="edge">
<title>allTrue&#45;&gt;allTrue</title>
<path fill="none" stroke="#000000" d="M578.9725,-791.3502C619.4183,-798.8417 664,-794.3916 664,-778 664,-762.953 626.4325,-757.9688 588.9826,-763.0473"/>
<polygon fill="#000000" stroke="#000000" points="588.2935,-759.6129 578.9725,-764.6498 589.4001,-766.5249 588.2935,-759.6129"/>
<text text-anchor="start" x="680.7207" y="-780.8" font-family="Times,serif" font-size="14.00" fill="#000000">loop</text>
<text text-anchor="start" x="664" y="-766.8" font-family="Times,serif" font-size="14.00" fill="#000000">conditions</text>
</g>
<!-- anyTrue&#45;&gt;setsTrue -->
<g id="edge16" class="edge">
<title>anyTrue&#45;&gt;setsTrue</title>
<path fill="none" stroke="#000000" d="M761.7218,-755.9524C745.0272,-745.2524 724.0017,-732.8349 704,-724 653.0659,-701.5019 636.958,-705.2016 584,-688 549.4922,-676.7913 512.6026,-664.2339 477.7736,-652.1116"/>
<polygon fill="#000000" stroke="#000000" points="478.6032,-648.6942 468.0083,-648.7055 476.2977,-655.3037 478.6032,-648.6942"/>
</g>
<!-- anyTrue&#45;&gt;setsFalse -->
<g id="edge17" class="edge">
<title>anyTrue&#45;&gt;setsFalse</title>
<path fill="none" stroke="#000000" d="M804.2744,-733.7224C809.3543,-711.8301 815.579,-685.005 821.165,-660.9319"/>
<polygon fill="#000000" stroke="#000000" points="824.5818,-661.6908 823.4328,-651.1584 817.763,-660.1085 824.5818,-661.6908"/>
</g>
<!-- anyTrue&#45;&gt;anyTrue -->
<g id="edge10" class="edge">
<title>anyTrue&#45;&gt;anyTrue</title>
<path fill="none" stroke="#000000" d="M834.9725,-791.3502C875.4183,-798.8417 920,-794.3916 920,-778 920,-762.953 882.4325,-757.9688 844.9826,-763.0473"/>
<polygon fill="#000000" stroke="#000000" points="844.2935,-759.6129 834.9725,-764.6498 845.4001,-766.5249 844.2935,-759.6129"/>
<text text-anchor="start" x="936.7207" y="-780.8" font-family="Times,serif" font-size="14.00" fill="#000000">loop</text>
<text text-anchor="start" x="920" y="-766.8" font-family="Times,serif" font-size="14.00" fill="#000000">conditions</text>
</g>
<!-- oneTrue&#45;&gt;setsTrue -->
<g id="edge18" class="edge">
<title>oneTrue&#45;&gt;setsTrue</title>
<path fill="none" stroke="#000000" d="M1025.268,-748.4199C1015.8435,-739.0749 1004.3675,-729.7063 992,-724 865.2539,-665.5203 817.2669,-713.3427 680,-688 613.1585,-675.6595 540.287,-657.8274 477.9841,-641.2129"/>
<polygon fill="#000000" stroke="#000000" points="478.6433,-637.7661 468.0781,-638.5579 476.8311,-644.5275 478.6433,-637.7661"/>
</g>
<!-- oneTrue&#45;&gt;setsFalse -->
<g id="edge19" class="edge">
<title>oneTrue&#45;&gt;setsFalse</title>
<path fill="none" stroke="#000000" d="M1022.3175,-751.526C1012.8283,-742.6398 1002.0639,-732.7644 992,-724 966.462,-701.7595 937.8883,-678.1461 912.2428,-657.3908"/>
<polygon fill="#000000" stroke="#000000" points="914.3637,-654.6048 904.3844,-651.046 909.9662,-660.0512 914.3637,-654.6048"/>
</g>
<!-- oneTrue&#45;&gt;oneTrue -->
<g id="edge11" class="edge">
<title>oneTrue&#45;&gt;oneTrue</title>
<path fill="none" stroke="#000000" d="M1090.9725,-791.3502C1131.4183,-798.8417 1176,-794.3916 1176,-778 1176,-762.953 1138.4325,-757.9688 1100.9826,-763.0473"/>
<polygon fill="#000000" stroke="#000000" points="1100.2935,-759.6129 1090.9725,-764.6498 1101.4001,-766.5249 1100.2935,-759.6129"/>
<text text-anchor="start" x="1192.7207" y="-780.8" font-family="Times,serif" font-size="14.00" fill="#000000">loop</text>
<text text-anchor="start" x="1176" y="-766.8" font-family="Times,serif" font-size="14.00" fill="#000000">conditions</text>
</g>
<!-- isTrue&#45;&gt;setsTrue -->
<g id="edge12" class="edge">
<title>isTrue&#45;&gt;setsTrue</title>
<path fill="none" stroke="#000000" d="M283.5053,-732.3184C282.1164,-717.7275 281.9759,-701.5843 285,-687 286.8281,-678.1835 289.5648,-669.1695 292.7568,-660.4159"/>
<polygon fill="#000000" stroke="#000000" points="296.0396,-661.6304 296.3776,-651.041 289.5097,-659.1083 296.0396,-661.6304"/>
</g>
<!-- isTrue&#45;&gt;setsFalse -->
<g id="edge13" class="edge">
<title>isTrue&#45;&gt;setsFalse</title>
<path fill="none" stroke="#000000" d="M332.0141,-763.9403C363.4899,-752.9313 408.4798,-737.3068 448,-724 524.9824,-698.0793 610.7986,-669.9143 682.111,-646.7093"/>
<polygon fill="#000000" stroke="#000000" points="683.1995,-650.0358 691.6266,-643.6144 681.0343,-643.3791 683.1995,-650.0358"/>
</g>
<!-- isNegated&#45;&gt;setsNegated -->
<g id="edge22" class="edge">
<title>isNegated&#45;&gt;setsNegated</title>
<path fill="none" stroke="#000000" d="M556.1824,-383.2223C539.594,-359.393 516.6267,-326.4003 496.5712,-297.5904"/>
<polygon fill="#000000" stroke="#000000" points="499.312,-295.4014 490.7261,-289.1939 493.5669,-299.4008 499.312,-295.4014"/>
</g>
<!-- isNegated&#45;&gt;returnValue -->
<g id="edge24" class="edge">
<title>isNegated&#45;&gt;returnValue</title>
<path fill="none" stroke="#000000" d="M598.7715,-380.3062C611.3322,-355.5222 626.4222,-321.2802 633,-289 642.584,-241.9665 642.584,-228.0335 633,-181 628.5605,-159.2132 620.2433,-136.5327 611.4434,-116.4695"/>
<polygon fill="#000000" stroke="#000000" points="614.5413,-114.8251 607.2395,-107.1482 608.1602,-117.7029 614.5413,-114.8251"/>
</g>
</g>
</svg>
