<?xml version="1.0" encoding="UTF-8" standalone="no"?>
<!DOCTYPE svg PUBLIC "-//W3C//DTD SVG 1.1//EN"
 "http://www.w3.org/Graphics/SVG/1.1/DTD/svg11.dtd">
<!-- Generated by graphviz version 2.40.1 (20161225.0304)
 -->
<!-- Title: %3 Pages: 1 -->
<svg width="1027pt" height="720pt"
 viewBox="0.00 0.00 1026.86 720.00" xmlns="http://www.w3.org/2000/svg" xmlns:xlink="http://www.w3.org/1999/xlink">
<g id="graph0" class="graph" transform="scale(.7484 .7484) rotate(0) translate(36 926)">
<title>%3</title>
<polygon fill="#ffffff" stroke="transparent" points="-36,36 -36,-926 1336,-926 1336,36 -36,36"/>
<g id="clust1" class="cluster">
<title>cluster_a</title>
</g>
<g id="clust2" class="cluster">
<title>cluster_b</title>
</g>
<g id="clust3" class="cluster">
<title>cluster_c</title>
</g>
<!-- setMultipleCount -->
<g id="node1" class="node">
<title>setMultipleCount</title>
<polygon fill="none" stroke="#000000" points="996,-305 708,-305 708,-197 996,-197 996,-305"/>
<text text-anchor="middle" x="852" y="-246.8" font-family="Helvetica,sans-Serif" font-size="14.00" fill="#000000">setMultipleCount</text>
</g>
<!-- originalPage -->
<g id="node5" class="node">
<title>originalPage</title>
<ellipse fill="none" stroke="#000000" cx="880" cy="-70" rx="144" ry="54"/>
<text text-anchor="middle" x="880" y="-65.8" font-family="Helvetica,sans-Serif" font-size="14.00" fill="#000000">originalPage</text>
</g>
<!-- setMultipleCount&#45;&gt;originalPage -->
<g id="edge6" class="edge">
<title>setMultipleCount&#45;&gt;originalPage</title>
<path fill="none" stroke="#000000" d="M860.4009,-196.694C863.4603,-176.9174 866.9467,-154.38 870.1225,-133.8511"/>
<polygon fill="#000000" stroke="#000000" points="873.5833,-134.3731 871.6533,-123.9555 866.6656,-133.3029 873.5833,-134.3731"/>
</g>
<!-- setPageToParent -->
<g id="node2" class="node">
<title>setPageToParent</title>
<polygon fill="none" stroke="#000000" points="304,-874 16,-874 16,-766 304,-766 304,-874"/>
<text text-anchor="middle" x="160" y="-815.8" font-family="Helvetica,sans-Serif" font-size="14.00" fill="#000000">setPageToParent</text>
</g>
<!-- isMultipleInstance -->
<g id="node9" class="node">
<title>isMultipleInstance</title>
<polygon fill="#e5e5e5" stroke="#000000" points="553,-693 461.1505,-639 553,-585 644.8495,-639 553,-693"/>
<text text-anchor="middle" x="553" y="-634.8" font-family="Helvetica,sans-Serif" font-size="14.00" fill="#000000">isMultipleInstance</text>
</g>
<!-- setPageToParent&#45;&gt;isMultipleInstance -->
<g id="edge13" class="edge">
<title>setPageToParent&#45;&gt;isMultipleInstance</title>
<path fill="none" stroke="#000000" d="M304.1175,-768.6874C353.5098,-749.4238 408.5232,-726.0692 457,-701 472.1781,-693.1509 488.009,-683.5657 502.3357,-674.301"/>
<polygon fill="#000000" stroke="#000000" points="504.5989,-677.0024 511.0424,-668.5923 500.7606,-671.1486 504.5989,-677.0024"/>
</g>
<!-- page -->
<g id="node3" class="node">
<title>page</title>
<ellipse fill="none" stroke="#000000" cx="1140" cy="-820" rx="144" ry="54"/>
<text text-anchor="middle" x="1140" y="-815.8" font-family="Helvetica,sans-Serif" font-size="14.00" fill="#000000">page</text>
</g>
<!-- hasSubpages -->
<g id="node8" class="node">
<title>hasSubpages</title>
<polygon fill="#e5e5e5" stroke="#000000" points="1140,-693 1066.6996,-639 1140,-585 1213.3004,-639 1140,-693"/>
<text text-anchor="middle" x="1140" y="-634.8" font-family="Helvetica,sans-Serif" font-size="14.00" fill="#000000">hasSubpages</text>
</g>
<!-- page&#45;&gt;hasSubpages -->
<g id="edge1" class="edge">
<title>page&#45;&gt;hasSubpages</title>
<path fill="none" stroke="#000000" d="M1140,-765.694C1140,-746.0964 1140,-723.7877 1140,-703.4089"/>
<polygon fill="#000000" stroke="#000000" points="1143.5001,-703.2676 1140,-693.2676 1136.5001,-703.2677 1143.5001,-703.2676"/>
</g>
<!-- subpage -->
<g id="node4" class="node">
<title>subpage</title>
<ellipse fill="none" stroke="#000000" cx="1140" cy="-445" rx="144" ry="54"/>
<text text-anchor="middle" x="1140" y="-440.8" font-family="Helvetica,sans-Serif" font-size="14.00" fill="#000000">subpage</text>
</g>
<!-- endPage -->
<g id="node6" class="node">
<title>endPage</title>
<ellipse fill="none" stroke="#000000" cx="520" cy="-70" rx="144" ry="54"/>
<text text-anchor="middle" x="520" y="-65.8" font-family="Helvetica,sans-Serif" font-size="14.00" fill="#000000">endPage</text>
</g>
<!-- nextStep -->
<g id="node7" class="node">
<title>nextStep</title>
<ellipse fill="none" stroke="#000000" cx="160" cy="-70" rx="144" ry="54"/>
<text text-anchor="middle" x="160" y="-65.8" font-family="Helvetica,sans-Serif" font-size="14.00" fill="#000000">nextStep</text>
</g>
<!-- hasSubpages&#45;&gt;subpage -->
<g id="edge2" class="edge">
<title>hasSubpages&#45;&gt;subpage</title>
<path fill="none" stroke="#000000" d="M1140,-584.9602C1140,-561.5141 1140,-533.8715 1140,-509.3721"/>
<polygon fill="#000000" stroke="#000000" points="1143.5001,-509.0861 1140,-499.0861 1136.5001,-509.0862 1143.5001,-509.0861"/>
<text text-anchor="middle" x="1149.3311" y="-537.8" font-family="Times,serif" font-size="14.00" fill="#000000">yes</text>
</g>
<!-- hasSubpages&#45;&gt;isMultipleInstance -->
<g id="edge3" class="edge">
<title>hasSubpages&#45;&gt;isMultipleInstance</title>
<path fill="none" stroke="#000000" d="M1066.6342,-639C962.8328,-639 772.6787,-639 655.1305,-639"/>
<polygon fill="#000000" stroke="#000000" points="655.0414,-635.5001 645.0414,-639 655.0414,-642.5001 655.0414,-635.5001"/>
<text text-anchor="middle" x="855.7623" y="-644.8" font-family="Times,serif" font-size="14.00" fill="#000000">no</text>
</g>
<!-- isMultipleCountTooBig -->
<g id="node10" class="node">
<title>isMultipleCountTooBig</title>
<polygon fill="#e5e5e5" stroke="#000000" points="812,-499 700.3005,-445 812,-391 923.6995,-445 812,-499"/>
<text text-anchor="middle" x="812" y="-440.8" font-family="Helvetica,sans-Serif" font-size="14.00" fill="#000000">isMultipleCountTooBig</text>
</g>
<!-- isMultipleInstance&#45;&gt;isMultipleCountTooBig -->
<g id="edge4" class="edge">
<title>isMultipleInstance&#45;&gt;isMultipleCountTooBig</title>
<path fill="none" stroke="#000000" d="M593.4688,-608.6875C638.2547,-575.1413 710.5761,-520.97 759.6447,-484.2159"/>
<polygon fill="#000000" stroke="#000000" points="762.012,-486.8157 767.9175,-478.0193 757.8155,-481.2131 762.012,-486.8157"/>
<text text-anchor="middle" x="699.3311" y="-537.8" font-family="Times,serif" font-size="14.00" fill="#000000">yes</text>
</g>
<!-- hasParent -->
<g id="node11" class="node">
<title>hasParent</title>
<polygon fill="#e5e5e5" stroke="#000000" points="499,-499 441.1991,-445 499,-391 556.8009,-445 499,-499"/>
<text text-anchor="middle" x="499" y="-440.8" font-family="Helvetica,sans-Serif" font-size="14.00" fill="#000000">hasParent</text>
</g>
<!-- isMultipleInstance&#45;&gt;hasParent -->
<g id="edge7" class="edge">
<title>isMultipleInstance&#45;&gt;hasParent</title>
<path fill="none" stroke="#000000" d="M540.0657,-592.5322C532.1323,-564.0309 521.9512,-527.4542 513.7112,-497.8512"/>
<polygon fill="#000000" stroke="#000000" points="517.0506,-496.7962 510.9972,-488.101 510.307,-498.6733 517.0506,-496.7962"/>
<text text-anchor="middle" x="534" y="-537.8" font-family="Times,serif" font-size="14.00" fill="#000000">no</text>
</g>
<!-- isMultipleCountTooBig&#45;&gt;setMultipleCount -->
<g id="edge5" class="edge">
<title>isMultipleCountTooBig&#45;&gt;setMultipleCount</title>
<path fill="none" stroke="#000000" d="M822.1454,-395.7948C827.1942,-371.3083 833.3599,-341.4045 838.7744,-315.144"/>
<polygon fill="#000000" stroke="#000000" points="842.2174,-315.7774 840.8089,-305.2766 835.3616,-314.3638 842.2174,-315.7774"/>
<text text-anchor="middle" x="840" y="-343.8" font-family="Times,serif" font-size="14.00" fill="#000000">no</text>
</g>
<!-- isMultipleCountTooBig&#45;&gt;hasParent -->
<g id="edge8" class="edge">
<title>isMultipleCountTooBig&#45;&gt;hasParent</title>
<path fill="none" stroke="#000000" d="M700.3879,-445C655.8073,-445 605.9181,-445 566.9479,-445"/>
<polygon fill="#000000" stroke="#000000" points="566.7738,-441.5001 556.7738,-445 566.7738,-448.5001 566.7738,-441.5001"/>
<text text-anchor="middle" x="628.5253" y="-450.8" font-family="Times,serif" font-size="14.00" fill="#000000">yes</text>
</g>
<!-- hasParent&#45;&gt;endPage -->
<g id="edge9" class="edge">
<title>hasParent&#45;&gt;endPage</title>
<path fill="none" stroke="#000000" d="M501.8759,-393.6441C505.6577,-326.1118 512.3024,-207.4569 516.4099,-134.1096"/>
<polygon fill="#000000" stroke="#000000" points="519.9073,-134.2508 516.972,-124.0707 512.9183,-133.8593 519.9073,-134.2508"/>
<text text-anchor="middle" x="519" y="-246.8" font-family="Times,serif" font-size="14.00" fill="#000000">no</text>
</g>
<!-- lastStep -->
<g id="node12" class="node">
<title>lastStep</title>
<polygon fill="#e5e5e5" stroke="#000000" points="162,-499 108,-445 162,-391 216,-445 162,-499"/>
<text text-anchor="middle" x="162" y="-440.8" font-family="Helvetica,sans-Serif" font-size="14.00" fill="#000000">lastStep</text>
</g>
<!-- hasParent&#45;&gt;lastStep -->
<g id="edge10" class="edge">
<title>hasParent&#45;&gt;lastStep</title>
<path fill="none" stroke="#000000" d="M441.3205,-445C381.5357,-445 288.3071,-445 226.2144,-445"/>
<polygon fill="#000000" stroke="#000000" points="226.1449,-441.5001 216.1449,-445 226.1448,-448.5001 226.1449,-441.5001"/>
<text text-anchor="middle" x="328.6749" y="-450.8" font-family="Times,serif" font-size="14.00" fill="#000000">yes</text>
</g>
<!-- lastStep&#45;&gt;setPageToParent -->
<g id="edge12" class="edge">
<title>lastStep&#45;&gt;setPageToParent</title>
<path fill="none" stroke="#000000" d="M161.713,-498.8074C161.3514,-566.6076 160.7306,-683.0105 160.344,-755.5058"/>
<polygon fill="#000000" stroke="#000000" points="156.8422,-755.8537 160.2887,-765.8723 163.8421,-755.8911 156.8422,-755.8537"/>
<text text-anchor="middle" x="170.3311" y="-634.8" font-family="Times,serif" font-size="14.00" fill="#000000">yes</text>
</g>
<!-- lastStep&#45;&gt;nextStep -->
<g id="edge11" class="edge">
<title>lastStep&#45;&gt;nextStep</title>
<path fill="none" stroke="#000000" d="M161.7134,-391.2716C161.3521,-323.5188 160.7314,-207.141 160.3446,-134.6094"/>
<polygon fill="#000000" stroke="#000000" points="163.8426,-134.2183 160.2893,-124.2371 156.8427,-134.2557 163.8426,-134.2183"/>
<text text-anchor="middle" x="168" y="-246.8" font-family="Times,serif" font-size="14.00" fill="#000000">no</text>
</g>
</g>
</svg>
