<?xml version="1.0" encoding="UTF-8" standalone="no"?>
<!DOCTYPE svg PUBLIC "-//W3C//DTD SVG 1.1//EN"
 "http://www.w3.org/Graphics/SVG/1.1/DTD/svg11.dtd">
<!-- Generated by graphviz version 2.40.1 (20161225.0304)
 -->
<!-- Title: %3 Pages: 1 -->
<svg width="717pt" height="1440pt"
 viewBox="0.00 0.00 717.35 1440.00" xmlns="http://www.w3.org/2000/svg" xmlns:xlink="http://www.w3.org/1999/xlink">
<g id="graph0" class="graph" transform="scale(.4423 .4423) rotate(0) translate(36 3220)">
<title>%3</title>
<polygon fill="#ffffff" stroke="transparent" points="-36,36 -36,-3220 1586,-3220 1586,36 -36,36"/>
<text text-anchor="start" x="577.7031" y="-3141.6" font-family="Times,serif" font-size="48.00" fill="#000000">Runner handler flow</text>
<g id="clust1" class="cluster">
<title>cluster_starter</title>
</g>
<g id="clust2" class="cluster">
<title>cluster_gosh</title>
</g>
<g id="clust3" class="cluster">
<title>cluster_banana</title>
</g>
<!-- handleUrl -->
<g id="node1" class="node">
<title>handleUrl</title>
<polygon fill="none" stroke="#000000" points="410,-3056 122,-3056 122,-2948 410,-2948 410,-3056"/>
<text text-anchor="middle" x="266" y="-2997.8" font-family="Helvetica,sans-Serif" font-size="14.00" fill="#000000">Match URL</text>
</g>
<!-- clonePageInstance -->
<g id="node2" class="node">
<title>clonePageInstance</title>
<polygon fill="none" stroke="#000000" points="410,-2875 122,-2875 122,-2767 410,-2767 410,-2875"/>
<text text-anchor="middle" x="266" y="-2816.8" font-family="Helvetica,sans-Serif" font-size="14.00" fill="#000000">Clone page instance</text>
</g>
<!-- handleUrl&#45;&gt;clonePageInstance -->
<g id="edge1" class="edge">
<title>handleUrl&#45;&gt;clonePageInstance</title>
<path fill="none" stroke="#000000" d="M266,-2947.694C266,-2928.0964 266,-2905.7877 266,-2885.4089"/>
<polygon fill="#000000" stroke="#000000" points="269.5001,-2885.2676 266,-2875.2676 262.5001,-2885.2677 269.5001,-2885.2676"/>
</g>
<!-- dynamicProps -->
<g id="node3" class="node">
<title>dynamicProps</title>
<polygon fill="none" stroke="#000000" points="410,-2694 122,-2694 122,-2586 410,-2586 410,-2694"/>
<text text-anchor="middle" x="266" y="-2635.8" font-family="Helvetica,sans-Serif" font-size="14.00" fill="#000000">Determine mode and dynamic props</text>
</g>
<!-- clonePageInstance&#45;&gt;dynamicProps -->
<g id="edge2" class="edge">
<title>clonePageInstance&#45;&gt;dynamicProps</title>
<path fill="none" stroke="#000000" d="M266,-2766.694C266,-2747.0964 266,-2724.7877 266,-2704.4089"/>
<polygon fill="#000000" stroke="#000000" points="269.5001,-2704.2676 266,-2694.2676 262.5001,-2704.2677 269.5001,-2704.2676"/>
</g>
<!-- handleAddDeleteRequired -->
<g id="node19" class="node">
<title>handleAddDeleteRequired</title>
<polygon fill="#e5e5e5" stroke="#000000" points="266,-2513 212,-2459 266,-2405 320,-2459 266,-2513"/>
<text text-anchor="middle" x="266" y="-2454.8" font-family="Helvetica,sans-Serif" font-size="14.00" fill="#000000">POST?</text>
</g>
<!-- dynamicProps&#45;&gt;handleAddDeleteRequired -->
<g id="edge3" class="edge">
<title>dynamicProps&#45;&gt;handleAddDeleteRequired</title>
<path fill="none" stroke="#000000" d="M266,-2585.694C266,-2566.0964 266,-2543.7877 266,-2523.4089"/>
<polygon fill="#000000" stroke="#000000" points="269.5001,-2523.2676 266,-2513.2676 262.5001,-2523.2677 269.5001,-2523.2676"/>
</g>
<!-- handleAddDelete -->
<g id="node4" class="node">
<title>handleAddDelete</title>
<polygon fill="none" stroke="#000000" points="714,-2332 426,-2332 426,-2224 714,-2224 714,-2332"/>
<text text-anchor="middle" x="570" y="-2273.8" font-family="Helvetica,sans-Serif" font-size="14.00" fill="#000000">Handle any Add/Delete action</text>
</g>
<!-- updatePageInstance -->
<g id="node5" class="node">
<title>updatePageInstance</title>
<polygon fill="none" stroke="#000000" points="410,-2151 122,-2151 122,-2043 410,-2043 410,-2151"/>
<text text-anchor="middle" x="266" y="-2092.8" font-family="Helvetica,sans-Serif" font-size="14.00" fill="#000000">Update page instance with dynamic props</text>
</g>
<!-- handleAddDelete&#45;&gt;updatePageInstance -->
<g id="edge5" class="edge">
<title>handleAddDelete&#45;&gt;updatePageInstance</title>
<path fill="none" stroke="#000000" d="M479.2018,-2223.9392C443.4057,-2202.6264 402.1733,-2178.0769 365.5654,-2156.2807"/>
<polygon fill="#000000" stroke="#000000" points="367.2382,-2153.2033 356.8553,-2151.0948 363.6571,-2159.218 367.2382,-2153.2033"/>
</g>
<!-- runPageComponentCode -->
<g id="node8" class="node">
<title>runPageComponentCode</title>
<polygon fill="none" stroke="#000000" points="410,-1970 122,-1970 122,-1862 410,-1862 410,-1970"/>
<text text-anchor="middle" x="266" y="-1911.8" font-family="Helvetica,sans-Serif" font-size="14.00" fill="#000000">Run arbitrary page/component code</text>
</g>
<!-- updatePageInstance&#45;&gt;runPageComponentCode -->
<g id="edge7" class="edge">
<title>updatePageInstance&#45;&gt;runPageComponentCode</title>
<path fill="none" stroke="#000000" d="M266,-2042.694C266,-2023.0964 266,-2000.7877 266,-1980.4089"/>
<polygon fill="#000000" stroke="#000000" points="269.5001,-1980.2676 266,-1970.2676 262.5001,-1980.2677 269.5001,-1980.2676"/>
</g>
<!-- evaluateRequiredIf -->
<g id="node6" class="node">
<title>evaluateRequiredIf</title>
<polygon fill="none" stroke="#000000" points="1246,-1753 958,-1753 958,-1645 1246,-1645 1246,-1753"/>
<text text-anchor="middle" x="1102" y="-1694.8" font-family="Helvetica,sans-Serif" font-size="14.00" fill="#000000">Evaluate components with requiredIf</text>
</g>
<!-- validate -->
<g id="node7" class="node">
<title>validate</title>
<polygon fill="none" stroke="#000000" points="1246,-1572 958,-1572 958,-1464 1246,-1464 1246,-1572"/>
<text text-anchor="middle" x="1102" y="-1513.8" font-family="Helvetica,sans-Serif" font-size="14.00" fill="#000000">Validate all expected fields</text>
</g>
<!-- evaluateRequiredIf&#45;&gt;validate -->
<g id="edge12" class="edge">
<title>evaluateRequiredIf&#45;&gt;validate</title>
<path fill="none" stroke="#000000" d="M1102,-1644.694C1102,-1625.0964 1102,-1602.7877 1102,-1582.4089"/>
<polygon fill="#000000" stroke="#000000" points="1105.5001,-1582.2676 1102,-1572.2676 1098.5001,-1582.2677 1105.5001,-1582.2676"/>
</g>
<!-- ifErrors -->
<g id="node22" class="node">
<title>ifErrors</title>
<polygon fill="#e5e5e5" stroke="#000000" points="1102,-1391 1048,-1337 1102,-1283 1156,-1337 1102,-1391"/>
<text text-anchor="middle" x="1102" y="-1332.8" font-family="Helvetica,sans-Serif" font-size="14.00" fill="#000000">Errors?</text>
</g>
<!-- validate&#45;&gt;ifErrors -->
<g id="edge13" class="edge">
<title>validate&#45;&gt;ifErrors</title>
<path fill="none" stroke="#000000" d="M1102,-1463.694C1102,-1444.0964 1102,-1421.7877 1102,-1401.4089"/>
<polygon fill="#000000" stroke="#000000" points="1105.5001,-1401.2676 1102,-1391.2676 1098.5001,-1401.2677 1105.5001,-1401.2676"/>
</g>
<!-- checkDepends -->
<g id="node20" class="node">
<title>checkDepends</title>
<polygon fill="#e5e5e5" stroke="#000000" points="266,-1753 145.8757,-1699 266,-1645 386.1243,-1699 266,-1753"/>
<text text-anchor="middle" x="266" y="-1694.8" font-family="Helvetica,sans-Serif" font-size="14.00" fill="#000000">Should page be shown?</text>
</g>
<!-- runPageComponentCode&#45;&gt;checkDepends -->
<g id="edge8" class="edge">
<title>runPageComponentCode&#45;&gt;checkDepends</title>
<path fill="none" stroke="#000000" d="M266,-1861.8015C266,-1832.0262 266,-1794.8998 266,-1763.6232"/>
<polygon fill="#000000" stroke="#000000" points="269.5001,-1763.2596 266,-1753.2596 262.5001,-1763.2597 269.5001,-1763.2596"/>
</g>
<!-- removeHiddenComponents -->
<g id="node9" class="node">
<title>removeHiddenComponents</title>
<polygon fill="none" stroke="#000000" points="1140,-667 852,-667 852,-559 1140,-559 1140,-667"/>
<text text-anchor="middle" x="996" y="-608.8" font-family="Helvetica,sans-Serif" font-size="14.00" fill="#000000">Remove hidden components</text>
</g>
<!-- addTriggersReveals -->
<g id="node12" class="node">
<title>addTriggersReveals</title>
<polygon fill="none" stroke="#000000" points="1140,-486 852,-486 852,-378 1140,-378 1140,-486"/>
<text text-anchor="middle" x="996" y="-427.8" font-family="Helvetica,sans-Serif" font-size="14.00" fill="#000000">Add any triggers and reveals info</text>
</g>
<!-- removeHiddenComponents&#45;&gt;addTriggersReveals -->
<g id="edge19" class="edge">
<title>removeHiddenComponents&#45;&gt;addTriggersReveals</title>
<path fill="none" stroke="#000000" d="M996,-558.694C996,-539.0964 996,-516.7877 996,-496.4089"/>
<polygon fill="#000000" stroke="#000000" points="999.5001,-496.2676 996,-486.2676 992.5001,-496.2677 999.5001,-496.2676"/>
</g>
<!-- setErrors -->
<g id="node10" class="node">
<title>setErrors</title>
<polygon fill="none" stroke="#000000" points="1550,-1210 1262,-1210 1262,-1102 1550,-1102 1550,-1210"/>
<text text-anchor="middle" x="1406" y="-1151.8" font-family="Helvetica,sans-Serif" font-size="14.00" fill="#000000">Set any errors</text>
</g>
<!-- updateValues -->
<g id="node11" class="node">
<title>updateValues</title>
<polygon fill="none" stroke="#000000" points="1246,-1029 958,-1029 958,-921 1246,-921 1246,-1029"/>
<text text-anchor="middle" x="1102" y="-970.8" font-family="Helvetica,sans-Serif" font-size="14.00" fill="#000000">Update any values</text>
</g>
<!-- setErrors&#45;&gt;updateValues -->
<g id="edge16" class="edge">
<title>setErrors&#45;&gt;updateValues</title>
<path fill="none" stroke="#000000" d="M1315.2018,-1101.9392C1279.4057,-1080.6264 1238.1733,-1056.0769 1201.5654,-1034.2807"/>
<polygon fill="#000000" stroke="#000000" points="1203.2382,-1031.2033 1192.8553,-1029.0948 1199.6571,-1037.218 1203.2382,-1031.2033"/>
</g>
<!-- goNext -->
<g id="node17" class="node">
<title>goNext</title>
<polygon fill="none" stroke="#000000" points="1246,-848 958,-848 958,-740 1246,-740 1246,-848"/>
<text text-anchor="middle" x="1102" y="-789.8" font-family="Helvetica,sans-Serif" font-size="14.00" fill="#000000">Determine next page</text>
</g>
<!-- updateValues&#45;&gt;goNext -->
<g id="edge17" class="edge">
<title>updateValues&#45;&gt;goNext</title>
<path fill="none" stroke="#000000" d="M1102,-920.694C1102,-901.0964 1102,-878.7877 1102,-858.4089"/>
<polygon fill="#000000" stroke="#000000" points="1105.5001,-858.2676 1102,-848.2676 1098.5001,-858.2677 1105.5001,-858.2676"/>
</g>
<!-- substitution -->
<g id="node13" class="node">
<title>substitution</title>
<polygon fill="none" stroke="#000000" points="1140,-305 852,-305 852,-197 1140,-197 1140,-305"/>
<text text-anchor="middle" x="996" y="-246.8" font-family="Helvetica,sans-Serif" font-size="14.00" fill="#000000">Substitute text strings</text>
</g>
<!-- addTriggersReveals&#45;&gt;substitution -->
<g id="edge20" class="edge">
<title>addTriggersReveals&#45;&gt;substitution</title>
<path fill="none" stroke="#000000" d="M996,-377.694C996,-358.0964 996,-335.7877 996,-315.4089"/>
<polygon fill="#000000" stroke="#000000" points="999.5001,-315.2676 996,-305.2676 992.5001,-315.2677 999.5001,-315.2676"/>
</g>
<!-- render -->
<g id="node14" class="node">
<title>render</title>
<polygon fill="none" stroke="#000000" points="1140,-124 852,-124 852,-16 1140,-16 1140,-124"/>
<text text-anchor="middle" x="996" y="-65.8" font-family="Helvetica,sans-Serif" font-size="14.00" fill="#000000">Render output</text>
</g>
<!-- substitution&#45;&gt;render -->
<g id="edge21" class="edge">
<title>substitution&#45;&gt;render</title>
<path fill="none" stroke="#000000" d="M996,-196.694C996,-177.0964 996,-154.7877 996,-134.4089"/>
<polygon fill="#000000" stroke="#000000" points="999.5001,-134.2676 996,-124.2676 992.5001,-134.2677 999.5001,-134.2676"/>
</g>
<!-- nextPage -->
<g id="node15" class="node">
<title>nextPage</title>
<polygon fill="none" stroke="#000000" points="775,-124 487,-124 487,-16 775,-16 775,-124"/>
<text text-anchor="middle" x="631" y="-65.8" font-family="Helvetica,sans-Serif" font-size="14.00" fill="#000000">Redirect to next page</text>
</g>
<!-- noNextPage -->
<g id="node16" class="node">
<title>noNextPage</title>
<polygon fill="none" stroke="#000000" points="410,-124 122,-124 122,-16 410,-16 410,-124"/>
<text text-anchor="middle" x="266" y="-65.8" font-family="Helvetica,sans-Serif" font-size="14.00" fill="#000000">Error &#45; no next page</text>
</g>
<!-- ifRedirect -->
<g id="node23" class="node">
<title>ifRedirect</title>
<polygon fill="#e5e5e5" stroke="#000000" points="760,-848 705.3373,-794 760,-740 814.6627,-794 760,-848"/>
<text text-anchor="middle" x="760" y="-789.8" font-family="Helvetica,sans-Serif" font-size="14.00" fill="#000000">Redirect?</text>
</g>
<!-- goNext&#45;&gt;ifRedirect -->
<g id="edge22" class="edge">
<title>goNext&#45;&gt;ifRedirect</title>
<path fill="none" stroke="#000000" d="M957.8257,-794C913.4944,-794 869.1631,-794 824.8318,-794"/>
<polygon fill="#000000" stroke="#000000" points="824.7735,-790.5001 814.7734,-794 824.7734,-797.5001 824.7735,-790.5001"/>
</g>
<!-- goNextForced -->
<g id="node18" class="node">
<title>goNextForced</title>
<polygon fill="none" stroke="#000000" points="410,-1572 122,-1572 122,-1464 410,-1464 410,-1572"/>
<text text-anchor="middle" x="266" y="-1513.8" font-family="Helvetica,sans-Serif" font-size="14.00" fill="#000000">Determine next page (forced)</text>
</g>
<!-- ifRedirectForced -->
<g id="node24" class="node">
<title>ifRedirectForced</title>
<polygon fill="#e5e5e5" stroke="#000000" points="266,-848 211.3373,-794 266,-740 320.6627,-794 266,-848"/>
<text text-anchor="middle" x="266" y="-789.8" font-family="Helvetica,sans-Serif" font-size="14.00" fill="#000000">Redirect?</text>
</g>
<!-- goNextForced&#45;&gt;ifRedirectForced -->
<g id="edge23" class="edge">
<title>goNextForced&#45;&gt;ifRedirectForced</title>
<path fill="none" stroke="#000000" d="M266,-1463.7466C266,-1427.7922 266,-1379.579 266,-1337 266,-1337 266,-1337 266,-975 266,-936.4128 266,-893.1982 266,-858.6741"/>
<polygon fill="#000000" stroke="#000000" points="269.5001,-858.2534 266,-848.2534 262.5001,-858.2534 269.5001,-858.2534"/>
</g>
<!-- handleAddDeleteRequired&#45;&gt;handleAddDelete -->
<g id="edge4" class="edge">
<title>handleAddDeleteRequired&#45;&gt;handleAddDelete</title>
<path fill="none" stroke="#000000" d="M299.9878,-2438.7639C340.8834,-2414.4148 411.3742,-2372.445 470.0771,-2337.4935"/>
<polygon fill="#000000" stroke="#000000" points="472.2171,-2340.2929 479.0188,-2332.1697 468.6359,-2334.2783 472.2171,-2340.2929"/>
<text text-anchor="middle" x="380.0372" y="-2388.3472" font-family="Times,serif" font-size="14.00" fill="#000000">yes</text>
</g>
<!-- handleAddDeleteRequired&#45;&gt;updatePageInstance -->
<g id="edge6" class="edge">
<title>handleAddDeleteRequired&#45;&gt;updatePageInstance</title>
<path fill="none" stroke="#000000" d="M266,-2404.8049C266,-2339.799 266,-2230.9394 266,-2161.6207"/>
<polygon fill="#000000" stroke="#000000" points="269.5001,-2161.2692 266,-2151.2692 262.5001,-2161.2693 269.5001,-2161.2692"/>
<text text-anchor="middle" x="259" y="-2280.9233" font-family="Times,serif" font-size="14.00" fill="#000000">no</text>
</g>
<!-- checkDepends&#45;&gt;goNextForced -->
<g id="edge10" class="edge">
<title>checkDepends&#45;&gt;goNextForced</title>
<path fill="none" stroke="#000000" d="M266,-1644.694C266,-1625.0964 266,-1602.7877 266,-1582.4089"/>
<polygon fill="#000000" stroke="#000000" points="269.5001,-1582.2676 266,-1572.2676 262.5001,-1582.2677 269.5001,-1582.2676"/>
<text text-anchor="middle" x="259" y="-1611.1863" font-family="Times,serif" font-size="14.00" fill="#000000">no</text>
</g>
<!-- ifPostHandling -->
<g id="node21" class="node">
<title>ifPostHandling</title>
<polygon fill="#e5e5e5" stroke="#000000" points="760,-1753 706,-1699 760,-1645 814,-1699 760,-1753"/>
<text text-anchor="middle" x="760" y="-1694.8" font-family="Helvetica,sans-Serif" font-size="14.00" fill="#000000">POST?</text>
</g>
<!-- checkDepends&#45;&gt;ifPostHandling -->
<g id="edge9" class="edge">
<title>checkDepends&#45;&gt;ifPostHandling</title>
<path fill="none" stroke="#000000" d="M386.123,-1699C489.3006,-1699 592.4782,-1699 695.6558,-1699"/>
<polygon fill="#000000" stroke="#000000" points="695.9631,-1702.5001 705.9631,-1699 695.9631,-1695.5001 695.9631,-1702.5001"/>
<text text-anchor="middle" x="536.9993" y="-1701.8" font-family="Times,serif" font-size="14.00" fill="#000000">yes</text>
</g>
<!-- ifPostHandling&#45;&gt;evaluateRequiredIf -->
<g id="edge11" class="edge">
<title>ifPostHandling&#45;&gt;evaluateRequiredIf</title>
<path fill="none" stroke="#000000" d="M814.1909,-1699C850.3264,-1699 899.7923,-1699 947.5247,-1699"/>
<polygon fill="#000000" stroke="#000000" points="947.6786,-1702.5001 957.6786,-1699 947.6785,-1695.5001 947.6786,-1702.5001"/>
<text text-anchor="middle" x="886" y="-1704.8" font-family="Times,serif" font-size="14.00" fill="#000000">yes</text>
</g>
<!-- ifPostHandling&#45;&gt;ifRedirect -->
<g id="edge18" class="edge">
<title>ifPostHandling&#45;&gt;ifRedirect</title>
<path fill="none" stroke="#000000" d="M760,-1644.7466C760,-1608.7922 760,-1560.579 760,-1518 760,-1518 760,-1518 760,-975 760,-936.4128 760,-893.1982 760,-858.6741"/>
<polygon fill="#000000" stroke="#000000" points="763.5001,-858.2534 760,-848.2534 756.5001,-858.2534 763.5001,-858.2534"/>
<text text-anchor="middle" x="753" y="-1452.925" font-family="Times,serif" font-size="14.00" fill="#000000">no</text>
</g>
<!-- ifErrors&#45;&gt;setErrors -->
<g id="edge14" class="edge">
<title>ifErrors&#45;&gt;setErrors</title>
<path fill="none" stroke="#000000" d="M1135.9878,-1316.7639C1176.8834,-1292.4148 1247.3742,-1250.445 1306.0771,-1215.4935"/>
<polygon fill="#000000" stroke="#000000" points="1308.2171,-1218.2929 1315.0188,-1210.1697 1304.6359,-1212.2783 1308.2171,-1218.2929"/>
<text text-anchor="middle" x="1216.0372" y="-1266.3472" font-family="Times,serif" font-size="14.00" fill="#000000">yes</text>
</g>
<!-- ifErrors&#45;&gt;updateValues -->
<g id="edge15" class="edge">
<title>ifErrors&#45;&gt;updateValues</title>
<path fill="none" stroke="#000000" d="M1102,-1282.8049C1102,-1217.799 1102,-1108.9394 1102,-1039.6207"/>
<polygon fill="#000000" stroke="#000000" points="1105.5001,-1039.2692 1102,-1029.2692 1098.5001,-1039.2693 1105.5001,-1039.2692"/>
<text text-anchor="middle" x="1095" y="-1158.9233" font-family="Times,serif" font-size="14.00" fill="#000000">no</text>
</g>
<!-- ifRedirect&#45;&gt;removeHiddenComponents -->
<g id="edge26" class="edge">
<title>ifRedirect&#45;&gt;removeHiddenComponents</title>
<path fill="none" stroke="#000000" d="M789.673,-769.2564C800.9576,-759.9698 813.9878,-749.3936 826,-740 854.262,-717.8989 885.6233,-694.234 913.6357,-673.3935"/>
<polygon fill="#000000" stroke="#000000" points="915.8867,-676.0814 921.8271,-667.3086 911.7125,-670.4621 915.8867,-676.0814"/>
<text text-anchor="middle" x="848.2876" y="-720.1631" font-family="Times,serif" font-size="14.00" fill="#000000">no</text>
</g>
<!-- ifRedirect&#45;&gt;nextPage -->
<g id="edge27" class="edge">
<title>ifRedirect&#45;&gt;nextPage</title>
<path fill="none" stroke="#000000" d="M737.7976,-761.6026C716.0004,-726.5843 686,-668.3359 686,-613 686,-613 686,-613 686,-251 686,-210.7733 673.4095,-167.6056 660.2764,-133.5198"/>
<polygon fill="#000000" stroke="#000000" points="663.5044,-132.1651 656.5678,-124.1567 656.9963,-134.7428 663.5044,-132.1651"/>
<text text-anchor="middle" x="676.6689" y="-570.551" font-family="Times,serif" font-size="14.00" fill="#000000">yes</text>
</g>
<!-- ifRedirectForced&#45;&gt;nextPage -->
<g id="edge25" class="edge">
<title>ifRedirectForced&#45;&gt;nextPage</title>
<path fill="none" stroke="#000000" d="M304.1532,-777.0451C357.5214,-750.4259 448,-693.4355 448,-613 448,-613 448,-613 448,-251 448,-201.2507 482.6102,-160.5401 521.7275,-130.4156"/>
<polygon fill="#000000" stroke="#000000" points="524.2078,-132.9321 530.1323,-124.1485 520.0234,-127.3204 524.2078,-132.9321"/>
<text text-anchor="middle" x="438.6689" y="-570.5521" font-family="Times,serif" font-size="14.00" fill="#000000">yes</text>
</g>
<!-- ifRedirectForced&#45;&gt;noNextPage -->
<g id="edge24" class="edge">
<title>ifRedirectForced&#45;&gt;noNextPage</title>
<path fill="none" stroke="#000000" d="M266,-739.7466C266,-703.7922 266,-655.579 266,-613 266,-613 266,-613 266,-251 266,-212.4128 266,-169.1982 266,-134.6741"/>
<polygon fill="#000000" stroke="#000000" points="269.5001,-134.2534 266,-124.2534 262.5001,-134.2534 269.5001,-134.2534"/>
<text text-anchor="middle" x="259" y="-570.55" font-family="Times,serif" font-size="14.00" fill="#000000">no</text>
</g>
</g>
</svg>
