<?xml version="1.0" encoding="UTF-8" standalone="no"?>
<!DOCTYPE svg PUBLIC "-//W3C//DTD SVG 1.1//EN"
 "http://www.w3.org/Graphics/SVG/1.1/DTD/svg11.dtd">
<!-- Generated by graphviz version 2.40.1 (20161225.0304)
 -->
<!-- Title: %3 Pages: 1 -->
<svg width="320pt" height="1440pt"
 viewBox="0.00 0.00 320.00 1440.00" xmlns="http://www.w3.org/2000/svg" xmlns:xlink="http://www.w3.org/1999/xlink">
<g id="graph0" class="graph" transform="scale(.8889 .8889) rotate(0) translate(36 1584)">
<title>%3</title>
<polygon fill="#ffffff" stroke="transparent" points="-36,36 -36,-1584 324,-1584 324,36 -36,36"/>
<!-- findData -->
<g id="node1" class="node">
<title>findData</title>
<polygon fill="none" stroke="#000000" points="288,-1548 0,-1548 0,-1440 288,-1440 288,-1548"/>
<text text-anchor="middle" x="144" y="-1489.8" font-family="Helvetica,sans-Serif" font-size="14.00" fill="#000000">Determine data sources</text>
</g>
<!-- loadData -->
<g id="node2" class="node">
<title>loadData</title>
<polygon fill="none" stroke="#000000" points="288,-1368 0,-1368 0,-1260 288,-1260 288,-1368"/>
<text text-anchor="middle" x="144" y="-1309.8" font-family="Helvetica,sans-Serif" font-size="14.00" fill="#000000">Load data</text>
</g>
<!-- findData&#45;&gt;loadData -->
<g id="edge1" class="edge">
<title>findData&#45;&gt;loadData</title>
<path fill="none" stroke="#000000" d="M144,-1439.9941C144,-1420.5933 144,-1398.5208 144,-1378.3296"/>
<polygon fill="#000000" stroke="#000000" points="147.5001,-1378.2786 144,-1368.2787 140.5001,-1378.2787 147.5001,-1378.2786"/>
</g>
<!-- expandRefs -->
<g id="node3" class="node">
<title>expandRefs</title>
<polygon fill="none" stroke="#000000" points="288,-1188 0,-1188 0,-1080 288,-1080 288,-1188"/>
<text text-anchor="middle" x="144" y="-1129.8" font-family="Helvetica,sans-Serif" font-size="14.00" fill="#000000">Expand refs / inherited values</text>
</g>
<!-- loadData&#45;&gt;expandRefs -->
<g id="edge2" class="edge">
<title>loadData&#45;&gt;expandRefs</title>
<path fill="none" stroke="#000000" d="M144,-1259.9941C144,-1240.5933 144,-1218.5208 144,-1198.3296"/>
<polygon fill="#000000" stroke="#000000" points="147.5001,-1198.2786 144,-1188.2787 140.5001,-1198.2787 147.5001,-1198.2786"/>
</g>
<!-- findDefs -->
<g id="node4" class="node">
<title>findDefs</title>
<polygon fill="none" stroke="#000000" points="288,-1008 0,-1008 0,-900 288,-900 288,-1008"/>
<text text-anchor="middle" x="144" y="-949.8" font-family="Helvetica,sans-Serif" font-size="14.00" fill="#000000">Determine definition sources</text>
</g>
<!-- expandRefs&#45;&gt;findDefs -->
<g id="edge3" class="edge">
<title>expandRefs&#45;&gt;findDefs</title>
<path fill="none" stroke="#000000" d="M144,-1079.9941C144,-1060.5933 144,-1038.5208 144,-1018.3296"/>
<polygon fill="#000000" stroke="#000000" points="147.5001,-1018.2786 144,-1008.2787 140.5001,-1018.2787 147.5001,-1018.2786"/>
</g>
<!-- loadDefs -->
<g id="node5" class="node">
<title>loadDefs</title>
<polygon fill="none" stroke="#000000" points="288,-828 0,-828 0,-720 288,-720 288,-828"/>
<text text-anchor="middle" x="144" y="-769.8" font-family="Helvetica,sans-Serif" font-size="14.00" fill="#000000">Load defintions</text>
</g>
<!-- findDefs&#45;&gt;loadDefs -->
<g id="edge4" class="edge">
<title>findDefs&#45;&gt;loadDefs</title>
<path fill="none" stroke="#000000" d="M144,-899.9941C144,-880.5933 144,-858.5208 144,-838.3296"/>
<polygon fill="#000000" stroke="#000000" points="147.5001,-838.2786 144,-828.2787 140.5001,-838.2787 147.5001,-838.2786"/>
</g>
<!-- modifyData -->
<g id="node6" class="node">
<title>modifyData</title>
<polygon fill="none" stroke="#000000" points="288,-648 0,-648 0,-540 288,-540 288,-648"/>
<text text-anchor="middle" x="144" y="-589.8" font-family="Helvetica,sans-Serif" font-size="14.00" fill="#000000">Modify</text>
</g>
<!-- loadDefs&#45;&gt;modifyData -->
<g id="edge5" class="edge">
<title>loadDefs&#45;&gt;modifyData</title>
<path fill="none" stroke="#000000" d="M144,-719.9941C144,-700.5933 144,-678.5208 144,-658.3296"/>
<polygon fill="#000000" stroke="#000000" points="147.5001,-658.2786 144,-648.2787 140.5001,-658.2787 147.5001,-658.2786"/>
</g>
<!-- propagateNamespaces -->
<g id="node7" class="node">
<title>propagateNamespaces</title>
<polygon fill="none" stroke="#000000" points="288,-468 0,-468 0,-360 288,-360 288,-468"/>
<text text-anchor="middle" x="144" y="-409.8" font-family="Helvetica,sans-Serif" font-size="14.00" fill="#000000">Propagate namespaces</text>
</g>
<!-- modifyData&#45;&gt;propagateNamespaces -->
<g id="edge6" class="edge">
<title>modifyData&#45;&gt;propagateNamespaces</title>
<path fill="none" stroke="#000000" d="M144,-539.9941C144,-520.5933 144,-498.5208 144,-478.3296"/>
<polygon fill="#000000" stroke="#000000" points="147.5001,-478.2786 144,-468.2787 140.5001,-478.2787 147.5001,-478.2786"/>
</g>
<!-- bubbleDepends -->
<g id="node8" class="node">
<title>bubbleDepends</title>
<polygon fill="none" stroke="#000000" points="288,-288 0,-288 0,-180 288,-180 288,-288"/>
<text text-anchor="middle" x="144" y="-229.8" font-family="Helvetica,sans-Serif" font-size="14.00" fill="#000000">Bubble up dependencies</text>
</g>
<!-- propagateNamespaces&#45;&gt;bubbleDepends -->
<g id="edge7" class="edge">
<title>propagateNamespaces&#45;&gt;bubbleDepends</title>
<path fill="none" stroke="#000000" d="M144,-359.9941C144,-340.5933 144,-318.5208 144,-298.3296"/>
<polygon fill="#000000" stroke="#000000" points="147.5001,-298.2786 144,-288.2787 140.5001,-298.2787 147.5001,-298.2786"/>
</g>
<!-- addFlow -->
<g id="node9" class="node">
<title>addFlow</title>
<polygon fill="none" stroke="#000000" points="288,-108 0,-108 0,0 288,0 288,-108"/>
<text text-anchor="middle" x="144" y="-49.8" font-family="Helvetica,sans-Serif" font-size="14.00" fill="#000000">Add next/previous</text>
</g>
<!-- bubbleDepends&#45;&gt;addFlow -->
<g id="edge8" class="edge">
<title>bubbleDepends&#45;&gt;addFlow</title>
<path fill="none" stroke="#000000" d="M144,-179.9941C144,-160.5933 144,-138.5208 144,-118.3296"/>
<polygon fill="#000000" stroke="#000000" points="147.5001,-118.2786 144,-108.2787 140.5001,-118.2787 147.5001,-118.2786"/>
</g>
</g>
</svg>
